<mxfile host="app.diagrams.net" modified="2024-04-27T09:15:55.586Z" agent="Mozilla/5.0 (Windows NT 10.0; Win64; x64) AppleWebKit/537.36 (KHTML, like Gecko) Chrome/124.0.0.0 Safari/537.36" version="21.7.5" etag="hqJa61cObzsubknUeD7h" type="github">
  <diagram name="Page-1" id="FXbmm5Ka6GS3MhWq9wbW">
    <mxGraphModel>
      <root>
        <mxCell id="0" />
        <mxCell id="1" parent="0" />
      </root>
    </mxGraphModel>
  </diagram>
</mxfile>
